:SAMPLES-PER-SECOND 30
:FULLY-SPECIFIED
:DEGREES
742
root  10.3818 39.634 9.8966 -133.113 -86.9285 130.564
RightUpLeg  -0.179529 -11.8754 -7.62832
RightLeg  9.95156 4.24514 2.05201
RightFoot  -9.61688 -0.142605 5.13804
RightToes  -8.73116e-010 0 -3.6325e-017
Spine  11.893 -2.13316 11.7472
Spine1  4.83127 -0.0413898 -3.62574
HEad  -10.0307 14.6946 -10.9015
LeftShoulder1  0.222228 2.87051 -28.9774
LeftArm  -2.29636 1.24598 -45.21
LeftForeArm  22.4167 -37.1508 -7.12312
LeftHand  -0.187317 0.590113 4.50859
RightShoulder  -0.28157 -4.34132 26.3189
RightArm  17.668 -0.0166179 44.5868
RightForeArm  12.815 5.47806 8.96473
RightHand  -0.405703 2.3427 -6.31165
LeftUpLeg  -7.62423 1.5159 3.63729
LeftLeg  27.083 -2.57395 -1.10107
LeftFoot  -6.72106 0.248144 -5.14763
LeftToes  -5.63919e-011 3.32596e-011 1.92487e-011
743
root  11.0258 39.6205 10.241 -116.202 -87.3667 113.933
RightUpLeg  -1.29668 -12.2919 -8.22876
RightLeg  9.78623 3.90222 2.27015
RightFoot  -9.1479 -0.184749 6.38992
RightToes  -8.73116e-010 0 -3.6325e-017
Spine  12.0648 -2.05635 10.5482
Spine1  4.44744 -0.323692 -2.33206
HEad  -10.4012 14.3523 -10.8873
LeftShoulder1  0.17461 3.01035 -29.2529
LeftArm  -2.17656 1.49198 -45.6436
LeftForeArm  23.6754 -38.5397 -7.44333
LeftHand  -0.179592 0.646522 4.36859
RightShoulder  -0.246847 -4.24225 26.0016
RightArm  16.1735 -1.94182 43.6616
RightForeArm  11.6562 4.87529 8.35333
RightHand  -0.445068 2.51495 -6.73773
LeftUpLeg  -5.70197 2.06003 5.02505
LeftLeg  27.1405 -3.09356 -1.38914
LeftFoot  -7.17004 0.225794 -5.04217
LeftToes  -5.63919e-011 3.32596e-011 1.92487e-011
744
root  11.625 39.6115 10.588 -87.134 -87.6783 84.9051
RightUpLeg  -1.79197 -12.4828 -8.68903
RightLeg  9.27593 2.9582 2.26791
RightFoot  -8.67137 -0.230839 7.38475
RightToes  -8.73116e-010 0 -3.6325e-017
Spine  12.1927 -2.10881 9.79026
Spine1  4.36539 -0.560473 -1.78325
HEad  -11.0215 13.3963 -10.1449
LeftShoulder1  0.261826 2.75485 -28.8452
LeftArm  -2.38952 2.06848 -46.4256
LeftForeArm  26.0966 -39.2835 -7.51005
LeftHand  -0.147523 0.123378 3.2716
RightShoulder  -0.353752 -4.55746 26.4919
RightArm  14.5294 -3.48077 42.3802
RightForeArm  8.04172 4.75392 7.67523
RightHand  -0.494599 2.77004 -7.25543
LeftUpLeg  -3.39599 3.05029 6.84705
LeftLeg  25.5816 -3.70289 -1.59804
LeftFoot  -7.84632 0.218077 -5.58835
LeftToes  -5.63919e-011 3.32596e-011 1.92487e-011
745
root  12.1968 39.578 10.9765 -51.0134 -87.0365 48.8602
RightUpLeg  -2.24286 -12.7962 -9.33822
RightLeg  8.96154 1.66686 2.18788
RightFoot  -8.61098 -0.268649 8.78781
RightToes  -8.73116e-010 0 -3.6325e-017
Spine  11.9839 -2.33186 9.19855
Spine1  4.52359 -0.91107 -1.63967
HEad  -11.6383 11.2888 -9.23954
LeftShoulder1  0.321379 2.57563 -28.4796
LeftArm  -2.24357 2.78018 -46.903
LeftForeArm  28.2088 -39.4603 -7.42935
LeftHand  -0.106368 0.0512725 2.33206
RightShoulder  -0.409411 -4.71447 26.8575
RightArm  12.9279 -4.98753 41.4761
RightForeArm  4.49024 5.01927 7.03529
RightHand  -0.522587 2.65524 -7.75585
LeftUpLeg  -1.21978 4.47854 8.70123
LeftLeg  22.9067 -4.09684 -1.57652
LeftFoot  -8.00719 0.193892 -5.0161
LeftToes  -5.63919e-011 3.32596e-011 1.92487e-011
746
root  12.7374 39.5676 11.395 -30.886 -85.5071 28.7495
RightUpLeg  -2.34695 -13.1956 -10.1733
RightLeg  8.38137 0.276922 2.15192
RightFoot  -8.26576 -0.327255 10.0609
RightToes  -8.73116e-010 0 -3.6325e-017
Spine  11.955 -2.58531 8.26439
Spine1  4.40326 -1.42747 -1.24513
HEad  -12.5612 7.93142 -8.8173
LeftShoulder1  0.25481 2.7739 -28.7836
LeftArm  -0.939651 3.64203 -46.7207
LeftForeArm  28.4207 -39.0945 -7.30868
LeftHand  -0.0818315 0.865815 2.0013
RightShoulder  -0.383043 -4.65649 26.2304
RightArm  11.9499 -6.56878 41.3335
RightForeArm  2.7609 5.69263 6.63378
RightHand  -0.523348 3.16806 -7.327
LeftUpLeg  0.843958 6.11789 10.5189
LeftLeg  19.4679 -3.46786 -1.04582
LeftFoot  -8.06867 0.182517 -4.71106
LeftToes  -5.63919e-011 3.32596e-011 1.92487e-011
747
root  13.259 39.5315 11.8749 -20.7945 -83.7266 18.9047
RightUpLeg  -2.63859 -13.6372 -10.9827
RightLeg  7.8418 -1.26471 2.09498
RightFoot  -7.8674 -0.404989 11.5499
RightToes  -8.73116e-010 0 -3.6325e-017
Spine  11.8137 -2.72984 7.56765
Spine1  3.9616 -1.79921 -1.00731
HEad  -13.8115 4.57769 -8.43433
LeftShoulder1  0.235503 2.8403 -29.3584
LeftArm  0.138265 4.82768 -46.2449
LeftForeArm  27.8355 -37.7478 -6.96081
LeftHand  -0.0544931 0.768558 1.27635
RightShoulder  -0.375176 -4.63514 26.1464
RightArm  11.8917 -7.57881 40.5827
RightForeArm  2.42516 6.56584 6.51217
RightHand  -0.492794 2.69467 -7.2865
LeftUpLeg  2.34851 7.53909 12.143
LeftLeg  15.9891 -1.98069 -0.256034
LeftFoot  -8.54689 0.169061 -4.82415
LeftToes  -5.63919e-011 3.32596e-011 1.92487e-011
748
root  13.7704 39.4956 12.4117 -16 -81.649 14.2153
RightUpLeg  -2.54009 -14.4737 -12.1865
RightLeg  7.16157 -2.46644 2.15575
RightFoot  -7.32453 -0.498464 12.7331
RightToes  -8.73116e-010 0 -3.6325e-017
Spine  11.6205 -2.79135 6.73667
Spine1  3.834 -2.04269 -1.03223
HEad  -14.7143 -0.128185 -7.59171
LeftShoulder1  0.206435 2.92228 -29.3993
LeftArm  1.16129 5.87921 -46.3998
LeftForeArm  26.0464 -35.1388 -6.35982
LeftHand  -0.0751363 0.691105 1.78506
RightShoulder  -0.399309 -4.7089 26.1646
RightArm  12.3957 -8.16708 39.8551
RightForeArm  2.53457 7.62912 6.6055
RightHand  -0.492195 2.79573 -7.19944
LeftUpLeg  3.38909 9.34334 13.1401
LeftLeg  13.0967 0.88073 0.922388
LeftFoot  -8.36118 0.133622 -3.22555
LeftToes  -5.63919e-011 3.32596e-011 1.92487e-011
749
root  14.2784 39.4349 12.9988 -12.4223 -79.4525 10.7143
RightUpLeg  -2.30839 -15.2547 -13.3723
RightLeg  6.44876 -3.83164 2.13428
RightFoot  -6.54532 -0.621252 13.707
RightToes  -8.73116e-010 0 -3.6325e-017
Spine  11.5241 -2.68989 5.78908
Spine1  3.59874 -2.18944 -0.643228
HEad  -15.6936 -5.23976 -6.71084
LeftShoulder1  0.136569 3.12253 -29.6814
LeftArm  2.53453 6.68188 -46.4556
LeftForeArm  24.1347 -31.698 -5.59864
LeftHand  -0.0630011 1.15636 1.5845
RightShoulder  -0.389397 -4.68508 25.9781
RightArm  12.751 -8.69252 39.3129
RightForeArm  2.30052 8.57842 6.61432
RightHand  -0.497641 3.13861 -6.99529
LeftUpLeg  4.19036 11.3928 13.9376
LeftLeg  10.5328 5.25409 1.84193
LeftFoot  -7.98811 0.101017 -1.81724
LeftToes  -5.63919e-011 3.32596e-011 1.92487e-011
750
root  14.8157 39.3428 13.6779 -9.86022 -77.0978 8.09806
RightUpLeg  -1.82586 -16.1106 -14.7911
RightLeg  5.80906 -5.14257 2.22775
RightFoot  -5.73788 -0.748251 14.4218
RightToes  -8.73116e-010 0 -3.6325e-017
Spine  11.3406 -2.50758 5.43309
Spine1  3.62743 -2.0333 -1.01209
HEad  -16.5802 -11.2127 -5.46916
LeftShoulder1  0.176631 3.00981 -29.6308
LeftArm  4.51799 7.27383 -46.4521
LeftForeArm  21.3984 -27.9377 -4.83645
LeftHand  -0.0525485 1.9694 1.425
RightShoulder  -0.418651 -4.77207 26.0818
RightArm  12.8764 -9.05238 38.8323
RightForeArm  2.04031 9.49435 6.46886
RightHand  -0.430907 2.18518 -6.79283
LeftUpLeg  4.48303 12.4765 14.1749
LeftLeg  9.02787 11.071 2.3548
LeftFoot  -7.64724 0.0903999 -1.43581
LeftToes  -5.63919e-011 3.32596e-011 1.92487e-011
751
root  15.3399 39.2065 14.4417 -7.34769 -74.3835 5.36464
RightUpLeg  -0.927162 -16.9917 -16.3388
RightLeg  5.24462 -6.80418 2.37124
RightFoot  -4.97751 -0.885961 15.244
RightToes  -8.73116e-010 0 -3.6325e-017
Spine  11.1595 -2.52676 5.21138
Spine1  3.70954 -2.05591 -1.35671
HEad  -17.403 -16.7059 -3.81014
LeftShoulder1  0.173946 3.0158 -29.4659
LeftArm  5.52515 7.94205 -46.3294
LeftForeArm  19.3473 -23.8413 -4.28908
LeftHand  -0.0329453 3.05504 0.874545
RightShoulder  -0.441443 -4.83645 26.175
RightArm  12.9653 -9.17254 38.5834
RightForeArm  1.14266 10.2878 6.36393
RightHand  -0.478996 2.36437 -7.37719
LeftUpLeg  4.45765 12.8011 14.1993
LeftLeg  8.28615 14.1662 2.25368
LeftFoot  -6.73725 0.232856 -4.43284
LeftToes  -5.63919e-011 3.32596e-011 1.92487e-011
752
root  15.8757 39.0357 15.2422 -6.62199 -72.1664 4.21308
RightUpLeg  -0.0677203 -17.6265 -18.0062
RightLeg  5.03336 -8.06103 2.06375
RightFoot  -4.70369 -1.02655 17.0285
RightToes  -8.73116e-010 0 -3.6325e-017
Spine  11.3703 -2.3136 4.81626
Spine1  3.68011 -1.749 -2.03551
HEad  -17.8239 -21.8511 -2.09349
LeftShoulder1  0.112799 3.17544 -29.2591
LeftArm  3.94525 8.21377 -45.6748
LeftForeArm  19.9033 -19.1331 -4.95809
LeftHand  -0.0273555 2.76857 0.518059
RightShoulder  -0.543468 -5.12182 26.7941
RightArm  13.0301 -8.40101 38.2009
RightForeArm  1.19919 10.4851 6.33117
RightHand  -0.465511 2.72411 -6.86278
LeftUpLeg  4.26854 13.2916 14.1041
LeftLeg  8.15271 12.1289 1.1604
LeftFoot  -5.27023 0.562885 -10.1505
LeftToes  -5.63919e-011 3.32596e-011 1.92487e-011
